<svg width="10" height="12" viewBox="0 0 10 12" fill="none" xmlns="http://www.w3.org/2000/svg">
<path d="M4.99999 12C4.0978 11.2819 3.26156 10.4946 2.49999 9.64646C1.35714 8.37271 6.2778e-07 6.47574 6.2778e-07 4.6681C-0.000495013 3.74492 0.292506 2.84235 0.841922 2.07462C1.39134 1.30689 2.17247 0.708507 3.08647 0.355202C4.00047 0.00189744 5.00624 -0.0904489 5.9765 0.0898503C6.94676 0.270149 7.83789 0.714989 8.53712 1.36807C9.00266 1.80056 9.37165 2.31491 9.62275 2.88136C9.87385 3.44781 10.0021 4.0551 9.99998 4.6681C9.99998 6.47574 8.64284 8.37271 7.49998 9.64646C6.73841 10.4946 5.90217 11.2819 4.99999 12ZM4.99999 1.33541C4.05314 1.33647 3.14539 1.68793 2.47587 2.3127C1.80634 2.93747 1.4297 3.78454 1.42857 4.6681C1.42857 5.44528 1.805 6.79102 3.59642 8.79129C4.03794 9.28324 4.50642 9.75355 4.99999 10.2004C5.49357 9.75406 5.96228 9.28442 6.40427 8.79329C8.19498 6.79035 8.57141 5.44461 8.57141 4.6681C8.57027 3.78454 8.19363 2.93747 7.52411 2.3127C6.85458 1.68793 5.94684 1.33647 4.99999 1.33541ZM4.99999 6.66771C4.43167 6.66771 3.88663 6.45703 3.48476 6.08203C3.0829 5.70704 2.85714 5.19843 2.85714 4.6681C2.85714 4.13777 3.0829 3.62916 3.48476 3.25416C3.88663 2.87916 4.43167 2.66849 4.99999 2.66849C5.56831 2.66849 6.11335 2.87916 6.51521 3.25416C6.91708 3.62916 7.14284 4.13777 7.14284 4.6681C7.14284 5.19843 6.91708 5.70704 6.51521 6.08203C6.11335 6.45703 5.56831 6.66771 4.99999 6.66771Z" fill="#F54748"/>
</svg>
