<svg width="34" height="34" viewBox="0 0 34 34" fill="none" xmlns="http://www.w3.org/2000/svg">
<rect width="34" height="34" rx="8" fill="white"/>
<path d="M15.9982 14C15.9982 15.1046 15.1032 16 13.9991 16C12.895 16 12 15.1046 12 14C12 12.8954 12.895 12 13.9991 12C15.1032 12 15.9982 12.8954 15.9982 14Z" fill="#1D2741"/>
<path d="M15.9982 20C15.9982 21.1046 15.1032 22 13.9991 22C12.895 22 12 21.1046 12 20C12 18.8954 12.895 18 13.9991 18C15.1032 18 15.9982 18.8954 15.9982 20Z" fill="#1D2741"/>
<path d="M21.9965 14C21.9965 15.1046 21.1015 16 19.9974 16C18.8933 16 17.9983 15.1046 17.9983 14C17.9983 12.8954 18.8933 12 19.9974 12C21.1015 12 21.9965 12.8954 21.9965 14Z" fill="#1D2741"/>
<path d="M21.9965 20C21.9965 21.1046 21.1015 22 19.9974 22C18.8933 22 17.9983 21.1046 17.9983 20C17.9983 18.8954 18.8933 18 19.9974 18C21.1015 18 21.9965 18.8954 21.9965 20Z" fill="#F54748"/>
</svg>
